<mxfile host="app.diagrams.net" modified="2024-05-21T10:10:07.275Z" agent="Mozilla/5.0 (Windows NT 10.0; Win64; x64) AppleWebKit/537.36 (KHTML, like Gecko) Chrome/122.0.0.0 YaBrowser/24.4.0.0 Safari/537.36" etag="v5xSr_-GXc20DxtIsLow" version="24.4.4" type="device">
  <diagram name="Страница — 1" id="HmauYLWnrETLl2SOZGr2">
    <mxGraphModel dx="1179" dy="667" grid="1" gridSize="10" guides="1" tooltips="1" connect="1" arrows="1" fold="1" page="1" pageScale="1" pageWidth="827" pageHeight="1169" math="0" shadow="0">
      <root>
        <mxCell id="0" />
        <mxCell id="1" parent="0" />
        <mxCell id="AKXuInhQAbG5scH_fY7O-1" value="Пользователь" style="rounded=0;whiteSpace=wrap;html=1;" vertex="1" parent="1">
          <mxGeometry x="200" y="190" width="120" height="50" as="geometry" />
        </mxCell>
        <mxCell id="AKXuInhQAbG5scH_fY7O-3" value="Имя" style="ellipse;whiteSpace=wrap;html=1;" vertex="1" parent="1">
          <mxGeometry x="110" y="30" width="90" height="40" as="geometry" />
        </mxCell>
        <mxCell id="AKXuInhQAbG5scH_fY7O-5" value="Почта&amp;nbsp;" style="ellipse;whiteSpace=wrap;html=1;" vertex="1" parent="1">
          <mxGeometry x="210" y="30" width="90" height="40" as="geometry" />
        </mxCell>
        <mxCell id="AKXuInhQAbG5scH_fY7O-7" value="Пароль" style="ellipse;whiteSpace=wrap;html=1;" vertex="1" parent="1">
          <mxGeometry x="310" y="30" width="90" height="40" as="geometry" />
        </mxCell>
        <mxCell id="AKXuInhQAbG5scH_fY7O-8" value="Статус пользователя" style="ellipse;whiteSpace=wrap;html=1;" vertex="1" parent="1">
          <mxGeometry x="10" y="30" width="90" height="40" as="geometry" />
        </mxCell>
        <mxCell id="AKXuInhQAbG5scH_fY7O-9" value="" style="endArrow=none;html=1;rounded=0;entryX=0.603;entryY=1.007;entryDx=0;entryDy=0;entryPerimeter=0;exitX=0.5;exitY=0;exitDx=0;exitDy=0;" edge="1" parent="1" source="AKXuInhQAbG5scH_fY7O-1" target="AKXuInhQAbG5scH_fY7O-8">
          <mxGeometry width="50" height="50" relative="1" as="geometry">
            <mxPoint x="100" y="160" as="sourcePoint" />
            <mxPoint x="150" y="110" as="targetPoint" />
          </mxGeometry>
        </mxCell>
        <mxCell id="AKXuInhQAbG5scH_fY7O-10" value="" style="endArrow=none;html=1;rounded=0;entryX=0.653;entryY=1.036;entryDx=0;entryDy=0;entryPerimeter=0;exitX=0.5;exitY=0;exitDx=0;exitDy=0;" edge="1" parent="1" source="AKXuInhQAbG5scH_fY7O-1" target="AKXuInhQAbG5scH_fY7O-3">
          <mxGeometry width="50" height="50" relative="1" as="geometry">
            <mxPoint x="100" y="160" as="sourcePoint" />
            <mxPoint x="150" y="110" as="targetPoint" />
          </mxGeometry>
        </mxCell>
        <mxCell id="AKXuInhQAbG5scH_fY7O-11" value="" style="endArrow=none;html=1;rounded=0;entryX=0.5;entryY=1;entryDx=0;entryDy=0;exitX=0.5;exitY=0;exitDx=0;exitDy=0;" edge="1" parent="1" source="AKXuInhQAbG5scH_fY7O-1" target="AKXuInhQAbG5scH_fY7O-5">
          <mxGeometry width="50" height="50" relative="1" as="geometry">
            <mxPoint x="150" y="160" as="sourcePoint" />
            <mxPoint x="200" y="110" as="targetPoint" />
          </mxGeometry>
        </mxCell>
        <mxCell id="AKXuInhQAbG5scH_fY7O-12" value="" style="endArrow=none;html=1;rounded=0;entryX=0.5;entryY=1;entryDx=0;entryDy=0;exitX=0.5;exitY=0;exitDx=0;exitDy=0;" edge="1" parent="1" source="AKXuInhQAbG5scH_fY7O-1" target="AKXuInhQAbG5scH_fY7O-7">
          <mxGeometry width="50" height="50" relative="1" as="geometry">
            <mxPoint x="210" y="170" as="sourcePoint" />
            <mxPoint x="260" y="120" as="targetPoint" />
          </mxGeometry>
        </mxCell>
        <mxCell id="AKXuInhQAbG5scH_fY7O-14" value="сумам" style="ellipse;whiteSpace=wrap;html=1;" vertex="1" parent="1">
          <mxGeometry x="410" y="30" width="90" height="40" as="geometry" />
        </mxCell>
        <mxCell id="AKXuInhQAbG5scH_fY7O-15" value="" style="endArrow=none;html=1;rounded=0;entryX=0.5;entryY=1;entryDx=0;entryDy=0;exitX=0.5;exitY=0;exitDx=0;exitDy=0;" edge="1" parent="1" source="AKXuInhQAbG5scH_fY7O-1" target="AKXuInhQAbG5scH_fY7O-14">
          <mxGeometry width="50" height="50" relative="1" as="geometry">
            <mxPoint x="310" y="190" as="sourcePoint" />
            <mxPoint x="360" y="140" as="targetPoint" />
          </mxGeometry>
        </mxCell>
        <mxCell id="AKXuInhQAbG5scH_fY7O-16" value="создать&amp;nbsp;" style="rhombus;whiteSpace=wrap;html=1;" vertex="1" parent="1">
          <mxGeometry x="380" y="180" width="100" height="70" as="geometry" />
        </mxCell>
        <mxCell id="AKXuInhQAbG5scH_fY7O-19" value="записать расходы" style="rounded=0;whiteSpace=wrap;html=1;" vertex="1" parent="1">
          <mxGeometry x="661" y="190" width="120" height="50" as="geometry" />
        </mxCell>
        <mxCell id="AKXuInhQAbG5scH_fY7O-20" value="" style="endArrow=none;html=1;rounded=0;entryX=0;entryY=0.5;entryDx=0;entryDy=0;exitX=1;exitY=0.5;exitDx=0;exitDy=0;" edge="1" parent="1" source="AKXuInhQAbG5scH_fY7O-1" target="AKXuInhQAbG5scH_fY7O-16">
          <mxGeometry width="50" height="50" relative="1" as="geometry">
            <mxPoint x="360" y="360" as="sourcePoint" />
            <mxPoint x="410" y="310" as="targetPoint" />
          </mxGeometry>
        </mxCell>
        <mxCell id="AKXuInhQAbG5scH_fY7O-21" value="" style="endArrow=none;html=1;rounded=0;entryX=0;entryY=0.5;entryDx=0;entryDy=0;exitX=1;exitY=0.5;exitDx=0;exitDy=0;" edge="1" parent="1" source="AKXuInhQAbG5scH_fY7O-16" target="AKXuInhQAbG5scH_fY7O-19">
          <mxGeometry width="50" height="50" relative="1" as="geometry">
            <mxPoint x="326" y="360" as="sourcePoint" />
            <mxPoint x="376" y="310" as="targetPoint" />
          </mxGeometry>
        </mxCell>
        <mxCell id="AKXuInhQAbG5scH_fY7O-23" value="сумам" style="ellipse;whiteSpace=wrap;html=1;" vertex="1" parent="1">
          <mxGeometry x="676" y="90" width="90" height="40" as="geometry" />
        </mxCell>
        <mxCell id="AKXuInhQAbG5scH_fY7O-24" value="" style="endArrow=none;html=1;rounded=0;entryX=0.5;entryY=0;entryDx=0;entryDy=0;exitX=0.5;exitY=1;exitDx=0;exitDy=0;" edge="1" parent="1" source="AKXuInhQAbG5scH_fY7O-23" target="AKXuInhQAbG5scH_fY7O-19">
          <mxGeometry width="50" height="50" relative="1" as="geometry">
            <mxPoint x="326" y="360" as="sourcePoint" />
            <mxPoint x="376" y="310" as="targetPoint" />
          </mxGeometry>
        </mxCell>
        <mxCell id="AKXuInhQAbG5scH_fY7O-25" value="Администратор&amp;nbsp;" style="rounded=0;whiteSpace=wrap;html=1;" vertex="1" parent="1">
          <mxGeometry x="226" y="524" width="120" height="50" as="geometry" />
        </mxCell>
        <mxCell id="AKXuInhQAbG5scH_fY7O-26" value="Имя" style="ellipse;whiteSpace=wrap;html=1;" vertex="1" parent="1">
          <mxGeometry x="136" y="364" width="90" height="40" as="geometry" />
        </mxCell>
        <mxCell id="AKXuInhQAbG5scH_fY7O-27" value="Почта&amp;nbsp;" style="ellipse;whiteSpace=wrap;html=1;" vertex="1" parent="1">
          <mxGeometry x="236" y="364" width="90" height="40" as="geometry" />
        </mxCell>
        <mxCell id="AKXuInhQAbG5scH_fY7O-28" value="Пароль" style="ellipse;whiteSpace=wrap;html=1;" vertex="1" parent="1">
          <mxGeometry x="336" y="364" width="90" height="40" as="geometry" />
        </mxCell>
        <mxCell id="AKXuInhQAbG5scH_fY7O-29" value="" style="endArrow=none;html=1;rounded=0;entryX=0.5;entryY=1;entryDx=0;entryDy=0;exitX=0.5;exitY=0;exitDx=0;exitDy=0;" edge="1" parent="1" source="AKXuInhQAbG5scH_fY7O-25" target="AKXuInhQAbG5scH_fY7O-37">
          <mxGeometry width="50" height="50" relative="1" as="geometry">
            <mxPoint x="126" y="494" as="sourcePoint" />
            <mxPoint x="90" y="404" as="targetPoint" />
          </mxGeometry>
        </mxCell>
        <mxCell id="AKXuInhQAbG5scH_fY7O-30" value="" style="endArrow=none;html=1;rounded=0;entryX=0.653;entryY=1.036;entryDx=0;entryDy=0;entryPerimeter=0;exitX=0.5;exitY=0;exitDx=0;exitDy=0;" edge="1" parent="1" source="AKXuInhQAbG5scH_fY7O-25" target="AKXuInhQAbG5scH_fY7O-26">
          <mxGeometry width="50" height="50" relative="1" as="geometry">
            <mxPoint x="126" y="494" as="sourcePoint" />
            <mxPoint x="176" y="444" as="targetPoint" />
          </mxGeometry>
        </mxCell>
        <mxCell id="AKXuInhQAbG5scH_fY7O-31" value="" style="endArrow=none;html=1;rounded=0;entryX=0.5;entryY=1;entryDx=0;entryDy=0;exitX=0.5;exitY=0;exitDx=0;exitDy=0;" edge="1" parent="1" source="AKXuInhQAbG5scH_fY7O-25" target="AKXuInhQAbG5scH_fY7O-27">
          <mxGeometry width="50" height="50" relative="1" as="geometry">
            <mxPoint x="176" y="494" as="sourcePoint" />
            <mxPoint x="226" y="444" as="targetPoint" />
          </mxGeometry>
        </mxCell>
        <mxCell id="AKXuInhQAbG5scH_fY7O-32" value="" style="endArrow=none;html=1;rounded=0;entryX=0.5;entryY=1;entryDx=0;entryDy=0;exitX=0.5;exitY=0;exitDx=0;exitDy=0;" edge="1" parent="1" source="AKXuInhQAbG5scH_fY7O-25" target="AKXuInhQAbG5scH_fY7O-28">
          <mxGeometry width="50" height="50" relative="1" as="geometry">
            <mxPoint x="236" y="504" as="sourcePoint" />
            <mxPoint x="286" y="454" as="targetPoint" />
          </mxGeometry>
        </mxCell>
        <mxCell id="AKXuInhQAbG5scH_fY7O-33" value="сумам" style="ellipse;whiteSpace=wrap;html=1;" vertex="1" parent="1">
          <mxGeometry x="436" y="364" width="90" height="40" as="geometry" />
        </mxCell>
        <mxCell id="AKXuInhQAbG5scH_fY7O-34" value="" style="endArrow=none;html=1;rounded=0;entryX=0.5;entryY=1;entryDx=0;entryDy=0;exitX=0.5;exitY=0;exitDx=0;exitDy=0;" edge="1" parent="1" source="AKXuInhQAbG5scH_fY7O-25" target="AKXuInhQAbG5scH_fY7O-33">
          <mxGeometry width="50" height="50" relative="1" as="geometry">
            <mxPoint x="336" y="524" as="sourcePoint" />
            <mxPoint x="386" y="474" as="targetPoint" />
          </mxGeometry>
        </mxCell>
        <mxCell id="AKXuInhQAbG5scH_fY7O-35" value="удалить&amp;nbsp;" style="rhombus;whiteSpace=wrap;html=1;" vertex="1" parent="1">
          <mxGeometry x="671" y="380" width="100" height="70" as="geometry" />
        </mxCell>
        <mxCell id="AKXuInhQAbG5scH_fY7O-36" value="" style="endArrow=none;html=1;rounded=0;entryX=0;entryY=0.5;entryDx=0;entryDy=0;exitX=1;exitY=0.5;exitDx=0;exitDy=0;" edge="1" parent="1" source="AKXuInhQAbG5scH_fY7O-25" target="AKXuInhQAbG5scH_fY7O-35">
          <mxGeometry width="50" height="50" relative="1" as="geometry">
            <mxPoint x="386" y="694" as="sourcePoint" />
            <mxPoint x="436" y="644" as="targetPoint" />
          </mxGeometry>
        </mxCell>
        <mxCell id="AKXuInhQAbG5scH_fY7O-37" value="Статус пользователя" style="ellipse;whiteSpace=wrap;html=1;" vertex="1" parent="1">
          <mxGeometry x="40" y="364" width="90" height="40" as="geometry" />
        </mxCell>
        <mxCell id="AKXuInhQAbG5scH_fY7O-38" value="" style="endArrow=none;html=1;rounded=0;entryX=0.5;entryY=1;entryDx=0;entryDy=0;exitX=0.5;exitY=0;exitDx=0;exitDy=0;" edge="1" parent="1" source="AKXuInhQAbG5scH_fY7O-35" target="AKXuInhQAbG5scH_fY7O-19">
          <mxGeometry width="50" height="50" relative="1" as="geometry">
            <mxPoint x="370" y="390" as="sourcePoint" />
            <mxPoint x="420" y="340" as="targetPoint" />
          </mxGeometry>
        </mxCell>
      </root>
    </mxGraphModel>
  </diagram>
</mxfile>
